# xmcd
#
# Track frame offsets: 
#        150
#        25372
#        45112
#        69457
#        89450
#        104875
#        132990
#        146427
#        178032
#        197307
#        218087
#
# Disc length: 3257 seconds
#
# Revision: 8
# Processed by: cddbd v1.5.2PL0 Copyright (c) Steve Scherf et al.
# Submitted via: ExactAudioCopy v1.0b3
#
DISCID=990cb70b
DTITLE=Stacey Kent - Close Your Eyes
DYEAR=1997
DGENRE=Jazz
TTITLE0=More Than You Know
TTITLE1=Dream Dancing
TTITLE2=Close Your Eyes
TTITLE3=There's A Lull In My Life
TTITLE4=Its Delovely
TTITLE5=There's No You
TTITLE6=I'm Old Fashioned
TTITLE7=You Go To My Head
TTITLE8=Little White Lies
TTITLE9=Sleep Warm
TTITLE10=Day In - Day Out
EXTD=YEAR: 1997
EXTT0=
EXTT1=
EXTT2=
EXTT3=
EXTT4=
EXTT5=
EXTT6=
EXTT7=
EXTT8=
EXTT9=
EXTT10=
PLAYORDER=
